<?xml version="1.0" encoding="UTF-8" standalone="no"?>
<svg
   xmlns:dc="http://purl.org/dc/elements/1.1/"
   xmlns:cc="http://creativecommons.org/ns#"
   xmlns:rdf="http://www.w3.org/1999/02/22-rdf-syntax-ns#"
   xmlns:svg="http://www.w3.org/2000/svg"
   xmlns="http://www.w3.org/2000/svg"
   xmlns:sodipodi="http://sodipodi.sourceforge.net/DTD/sodipodi-0.dtd"
   xmlns:inkscape="http://www.inkscape.org/namespaces/inkscape"
   width="50mm"
   height="64mm"
   viewBox="0 0 50 64"
   version="1.1"
   id="svg8"
   inkscape:version="1.0.2 (e86c8708, 2021-01-15)"
   sodipodi:docname="carrierassembly_p4.svg">
  <defs
     id="defs2" />
  <sodipodi:namedview
     id="base"
     pagecolor="#ffffff"
     bordercolor="#666666"
     borderopacity="1.0"
     inkscape:pageopacity="0.0"
     inkscape:pageshadow="2"
     inkscape:zoom="2.6684744"
     inkscape:cx="99.165246"
     inkscape:cy="104.40133"
     inkscape:document-units="mm"
     inkscape:current-layer="layer1"
     inkscape:document-rotation="0"
     showgrid="false"
     inkscape:window-width="1635"
     inkscape:window-height="1058"
     inkscape:window-x="0"
     inkscape:window-y="25"
     inkscape:window-maximized="0" />
  <metadata
     id="metadata5">
    <rdf:RDF>
      <cc:Work
         rdf:about="">
        <dc:format>image/svg+xml</dc:format>
        <dc:type
           rdf:resource="http://purl.org/dc/dcmitype/StillImage" />
        <dc:title></dc:title>
      </cc:Work>
    </rdf:RDF>
  </metadata>
  <g
     inkscape:label="Layer 1"
     inkscape:groupmode="layer"
     id="layer1">
    <rect
       style="opacity:0.158;fill:#bd9999;fill-opacity:1;stroke:none;stroke-width:0.2"
       id="rect889"
       width="28"
       height="56"
       x="4"
       y="3.9999063" />
    <path
       id="path903"
       style="opacity:0.25;fill:#999999;stroke:none;stroke-width:0.2"
       d="m 8.0001221,8.0000284 v 4.9996946 h 2.9998169 a 1.9999999,1.9999999 0 0 0 1.999878,-1.999878 1.9999999,1.9999999 0 0 0 0,-0.0217 V 8.0000284 Z m 15.0001179,0 v 2.9998166 a 1.9999999,1.9999999 0 0 0 1.999878,1.999878 h 2.999817 V 8.0000284 Z M 10.986503,9.9999063 a 1,1 0 0 1 0.01344,0 1,1 0 0 1 0.999939,0.9999387 1,1 0 0 1 -0.999943,0.999939 A 1,1 0 0 1 10,10.999845 1,1 0 0 1 10.986503,9.9999063 Z m 13.999662,0 a 1,1 0 0 1 0.01395,0 1,1 0 0 1 0.999939,0.9999387 1,1 0 0 1 -0.999936,0.999939 1,1 0 0 1 -0.999939,-0.999939 1,1 0 0 1 0.985986,-0.9999387 z M 8.0001221,37.500036 v 4.999693 h 4.9996949 v -2.999816 a 1.9999999,1.9999999 0 0 0 -1.999878,-1.999877 z m 16.9777749,0 a 1.9999999,1.9999999 0 0 0 -1.977657,1.999877 1.9999999,1.9999999 0 0 0 0,0.0217 v 2.978112 h 4.999695 v -4.999689 h -2.999817 a 1.9999999,1.9999999 0 0 0 -0.02222,0 z m -13.991394,0.99994 a 1,1 0 0 1 0.01344,0 1,1 0 0 1 0.999939,0.999937 1,1 0 0 1 -0.999939,0.99994 A 1,1 0 0 1 10,39.499913 1,1 0 0 1 10.986503,38.499976 Z m 13.999662,0 a 1,1 0 0 1 0.01395,0 1,1 0 0 1 0.999939,0.999937 1,1 0 0 1 -0.999939,0.99994 1,1 0 0 1 -0.999939,-0.99994 1,1 0 0 1 0.985986,-0.999937 z" />
    <path
       id="rect957"
       style="opacity:0.25;fill:#999999;fill-opacity:1;stroke:none;stroke-width:0.755906"
       d="M 15.117188,0 V 43.75 L 3.7792969,55.087891 V 67.652344 H 15.117188 v 0.378906 22.677734 0.376954 H 0 v 59.716792 h 15.117188 v 0.37891 22.67774 0.37695 H 3.7792969 v 12.56445 l 11.3378911,11.33789 v 43.75 h 98.267582 7.56054 26.45508 v -41.57422 l 3.7793,-3.77929 h 37.79687 v -7.5586 h -37.79297 l -3.7832,-3.78125 V 15.117188 H 120.94531 V 0 Z M 68.03125,11.337891 c 8.349543,5.09e-4 15.117754,6.769597 15.117188,15.11914 -5.07e-4,8.348782 -6.768404,15.116681 -15.117188,15.117188 -8.34878,-5.1e-4 -15.116681,-6.768407 -15.117188,-15.117188 -5.66e-4,-8.349542 6.767645,-15.11863 15.117188,-15.11914 z M 41.492188,34.015625 a 7.5590548,7.5590548 0 0 1 0.08203,0 7.5590548,7.5590548 0 0 1 7.560547,7.558594 7.5590548,7.5590548 0 0 1 -7.560547,7.560547 7.5590548,7.5590548 0 0 1 -7.558594,-7.560547 7.5590548,7.5590548 0 0 1 7.476564,-7.558594 z m 52.914062,0 a 7.5590547,7.5590547 0 0 1 0.08203,0 7.5590547,7.5590547 0 0 1 7.5586,7.558594 7.5590547,7.5590547 0 0 1 -7.5586,7.560547 7.5590547,7.5590547 0 0 1 -7.558593,-7.560547 7.5590547,7.5590547 0 0 1 7.476563,-7.558594 z M 34.015625,52.912109 H 102.04688 V 136.0625 H 34.015625 Z m 98.267575,7.560547 h 9.44922 v 37.794922 h -9.44922 v -7.18164 H 120.94531 V 67.652344 H 132.2832 Z M 41.492188,141.73242 a 7.5590549,7.5590549 0 0 1 0.08203,0 7.5590549,7.5590549 0 0 1 7.560547,7.5586 7.5590549,7.5590549 0 0 1 -7.560547,7.55859 7.5590549,7.5590549 0 0 1 -7.558594,-7.55859 7.5590549,7.5590549 0 0 1 7.476564,-7.5586 z m 52.914062,0 a 7.559055,7.559055 0 0 1 0.08203,0 7.559055,7.559055 0 0 1 7.5586,7.5586 7.559055,7.559055 0 0 1 -7.5586,7.55859 7.559055,7.559055 0 0 1 -7.558593,-7.55859 7.559055,7.559055 0 0 1 7.476563,-7.5586 z m 37.87695,1.88867 h 9.44922 v 37.79493 h -9.44922 v -7.17969 h -11.33789 v -23.4336 h 11.33789 z m -64.289059,30.23633 h 0.002 0.03516 c 14.611892,-1.9e-4 26.457216,11.84515 26.457031,26.45703 1.85e-4,14.61189 -11.845139,26.45722 -26.457031,26.45703 -14.611892,1.9e-4 -26.457216,-11.84514 -26.457031,-26.45703 -1.97e-4,-14.59741 11.822524,-26.43674 26.419922,-26.45703 z"
       transform="scale(0.26458333)" />
    <rect
       style="opacity:0.25;fill:#b89999;fill-opacity:1;stroke:none;stroke-width:0.2"
       id="rect955"
       width="25"
       height="42"
       x="5.5000286"
       y="9.9999065" />
    <path
       id="rect972"
       style="opacity:0.25;fill:#9999ce;fill-opacity:1;stroke:none;stroke-width:0.194028"
       d="M 20.999845,2.9998169 V 17.999935 H 1.9999716 v 6.00015 H 9.000061 V 40.000142 H 1.9999716 v 5.999633 H 9.000061 v 8.000029 h 6.000151 v -8.000029 h 5.999633 V 53.999804 60 h 6.000151 V 45.999775 h 7.000089 V 40.000142 H 26.999996 V 24.000085 h 7.000089 v -6.00015 H 26.999996 V 2.9998169 Z M 15.000212,24.000085 h 5.999633 v 16.000057 h -5.999633 z"
       sodipodi:nodetypes="ccccccccccccccccccccccccccccccc" />
    <g
       id="g1000"
       transform="matrix(-1,0,0,1,-9.346191,63.820244)">
      <rect
         style="opacity:0.25;fill:#b89999;fill-opacity:1;stroke:none;stroke-width:0.2"
         id="rect994"
         width="15"
         height="4.5"
         x="-41.346191"
         y="-9.3202438" />
      <rect
         style="opacity:0.25;fill:#b89999;fill-opacity:1;stroke:none;stroke-width:0.2"
         id="rect996"
         width="10"
         height="0.5"
         x="-26.346191"
         y="-7.3202438" />
    </g>
    <g
       id="g1006"
       transform="matrix(-1,0,0,1,-10.635224,21.845608)">
      <rect
         style="opacity:0.25;fill:#b89999;fill-opacity:1;stroke:none;stroke-width:0.2"
         id="rect992"
         width="10"
         height="4.1999998"
         x="-42.635159"
         y="-18.04558" />
      <rect
         style="opacity:0.25;fill:#b89999;fill-opacity:1;stroke:none;stroke-width:0.2"
         id="rect1002"
         width="11"
         height="0.5"
         x="-32.635159"
         y="-16.19558" />
    </g>
    <path
       id="rect1008"
       style="opacity:0.25;fill:#b89999;fill-opacity:1;stroke:none;stroke-width:0.23094"
       d="m 40.000236,1.999878 v 48.00017 h 0.99994 v 1.999877 h -0.99994 V 63.99971 h 7.99951 V 51.999925 h -0.999937 v -1.999877 h 0.999937 V 1.999878 Z" />
    <path
       id="rect841"
       style="opacity:0.25;fill:#999999;stroke:none;stroke-width:0.755906"
       d="m 26.234375,26.234375 v 2.001953 24.94336 c 6.516232,-0.504696 13.241989,0.867961 19.611328,-0.855469 5.35485,-1.998966 8.089756,-8.094666 7.289063,-13.550781 V 26.234375 Z m 56.693359,0 v 2.001953 c 0.454628,6.063563 -1.058422,12.417214 1.083985,18.25 2.274459,5.115753 8.293665,7.420017 13.603515,6.648438 H 109.82812 V 26.234375 Z m -41.435546,7.78125 a 7.5590548,7.5590548 0 0 1 0.08203,0 7.5590548,7.5590548 0 0 1 7.560547,7.558594 7.5590548,7.5590548 0 0 1 -7.560547,7.560547 7.5590548,7.5590548 0 0 1 -7.558594,-7.560547 7.5590548,7.5590548 0 0 1 7.476564,-7.558594 z m 52.914062,0 a 7.5590549,7.5590549 0 0 1 0.08203,0 7.5590549,7.5590549 0 0 1 7.5586,7.558594 7.5590549,7.5590549 0 0 1 -7.5586,7.560547 7.5590549,7.5590549 0 0 1 -7.558593,-7.560547 7.5590549,7.5590549 0 0 1 7.476563,-7.558594 z M 41.337891,137.63281 c -0.310257,-0.007 -0.620252,-3.7e-4 -0.929688,0.0176 -4.716568,0.18996 -9.450735,0.0257 -14.173828,0.0801 v 26.90039 h 26.945313 c -0.506344,-6.5236 0.871952,-13.25758 -0.863282,-19.63281 -1.676749,-4.42913 -6.324673,-7.26478 -10.978515,-7.36524 z m 68.490229,0.0977 c -5.32479,-0.002 -10.649817,-6.7e-4 -15.974604,0.0234 -6.735292,0.13829 -11.920682,7.01536 -10.925782,13.5332 v 13.34375 h 26.900386 z m -68.335932,4.00195 a 7.5590551,7.5590551 0 0 1 0.08203,0 7.5590551,7.5590551 0 0 1 7.560547,7.5586 7.5590551,7.5590551 0 0 1 -7.560547,7.55859 7.5590551,7.5590551 0 0 1 -7.558594,-7.55859 7.5590551,7.5590551 0 0 1 7.476564,-7.5586 z m 52.914062,0 a 7.559055,7.559055 0 0 1 0.08203,0 7.559055,7.559055 0 0 1 7.5586,7.5586 7.559055,7.559055 0 0 1 -7.5586,7.55859 7.559055,7.559055 0 0 1 -7.558593,-7.55859 7.559055,7.559055 0 0 1 7.476563,-7.5586 z"
       transform="scale(0.26458333)" />
  </g>
</svg>
