<?xml version="1.0" encoding="UTF-8" standalone="no"?>
<svg
   xmlns:dc="http://purl.org/dc/elements/1.1/"
   xmlns:cc="http://creativecommons.org/ns#"
   xmlns:rdf="http://www.w3.org/1999/02/22-rdf-syntax-ns#"
   xmlns:svg="http://www.w3.org/2000/svg"
   xmlns="http://www.w3.org/2000/svg"
   xmlns:sodipodi="http://sodipodi.sourceforge.net/DTD/sodipodi-0.dtd"
   xmlns:inkscape="http://www.inkscape.org/namespaces/inkscape"
   width="210mm"
   height="297mm"
   viewBox="0 0 210 297"
   version="1.1"
   id="svg1106"
   inkscape:version="1.0.2 (e86c8708, 2021-01-15)"
   sodipodi:docname="TaillightHoleOnly.svg">
  <defs
     id="defs1100" />
  <sodipodi:namedview
     id="base"
     pagecolor="#ffffff"
     bordercolor="#666666"
     borderopacity="1.0"
     inkscape:pageopacity="0.0"
     inkscape:pageshadow="2"
     inkscape:zoom="2.0363696"
     inkscape:cx="31.157098"
     inkscape:cy="40.268128"
     inkscape:document-units="mm"
     inkscape:current-layer="layer1"
     inkscape:document-rotation="0"
     showgrid="false"
     inkscape:window-width="1252"
     inkscape:window-height="943"
     inkscape:window-x="620"
     inkscape:window-y="149"
     inkscape:window-maximized="0"
     showguides="true"
     inkscape:guide-bbox="true">
    <sodipodi:guide
       position="-24.958316,325.96717"
       orientation="1,0"
       id="guide1770" />
  </sodipodi:namedview>
  <metadata
     id="metadata1103">
    <rdf:RDF>
      <cc:Work
         rdf:about="">
        <dc:format>image/svg+xml</dc:format>
        <dc:type
           rdf:resource="http://purl.org/dc/dcmitype/StillImage" />
        <dc:title></dc:title>
      </cc:Work>
    </rdf:RDF>
  </metadata>
  <g
     inkscape:label="Layer 1"
     inkscape:groupmode="layer"
     id="layer1">
    <path
       id="path1843"
       style="opacity:0.176849;fill:#999999;stroke:none;stroke-width:0.2"
       d="m -9.7864409,70.489873 c -5.1888471,0.146921 -10.2655071,1.431668 -15.1718751,3.054687 -4.878813,7.984822 -6.68412,17.546738 -6.210614,26.8168 0.08122,11.35188 -0.219112,22.71461 0.329214,34.05743 0.685674,5.98664 2.808703,11.74642 5.783744,16.96366 10.597896,4.22277 22.7968281,4.22903 33.398437,0.0156 4.870896,-7.94865 6.618004,-17.48326 6.160157,-26.71094 -0.0826,-11.35006 0.219912,-22.71097 -0.329452,-34.051973 C 13.486446,84.63349 11.35228,78.861382 8.371762,73.630503 2.583765,71.470132 -3.5986679,70.298372 -9.7864409,70.489878 Z" />
    <g
       id="g3370"
       transform="translate(-42.003359)">
      <rect
         style="opacity:0.118971;fill:#ff0000;stroke-width:0.2"
         id="rect3362"
         width="24"
         height="64"
         x="30"
         y="-30" />
      <rect
         style="opacity:0.118971;fill:#ff0000;stroke-width:0.2"
         id="rect3366"
         width="2"
         height="64"
         x="42"
         y="-30" />
    </g>
    <path
       id="path3342"
       style="opacity:0.15434084;fill:#000000;stroke-width:0.729419"
       d="M -57.042969 -132.2832 L -102.39648 124.93359 L -102.39648 128.71094 L -56.693359 207.87305 L 56.693359 207.87305 L 102.37109 128.75781 L 56.34375 -132.2832 L -57.042969 -132.2832 z M 0 -117.16602 A 127.24289 127.18081 0 0 1 40.777344 -110.45703 A 122.47129 127.18081 0 0 1 54.519531 -51.921875 L 54.519531 71.955078 A 122.47129 127.18081 0 0 1 40.775391 130.48828 A 127.24289 127.18081 0 0 1 0 137.19727 A 127.24289 127.18081 0 0 1 -40.779297 130.48828 A 122.47129 127.18081 0 0 1 -54.519531 71.955078 L -54.519531 -51.921875 A 122.47129 127.18081 0 0 1 -40.775391 -110.45703 A 127.24289 127.18081 0 0 1 0 -117.16602 z "
       transform="scale(0.26458333)" />
    <path
       id="path3340"
       style="opacity:0.13504823;fill:#000000;stroke-width:0.729419"
       d="M -57.042969 -132.2832 L -102.39648 124.93359 L -102.39648 128.71094 L -56.693359 207.87305 L 56.693359 207.87305 L 102.37109 128.75781 L 56.34375 -132.2832 L -57.042969 -132.2832 z "
       transform="scale(0.26458333)" />
    <path
       id="path3345"
       style="opacity:0.15434084;fill:#000000;stroke-width:0.729419"
       d="M -57.042969 -132.2832 L -102.39648 124.93359 L -102.39648 128.71094 L -56.693359 207.87305 L 56.693359 207.87305 L 102.37109 128.75781 L 56.34375 -132.2832 L -57.042969 -132.2832 z M 0 -120.94531 A 136.06299 130.96064 0 0 1 43.603516 -114.03711 A 130.96064 130.96064 0 0 1 58.298828 -53.763672 L 58.298828 73.794922 A 130.96064 130.96064 0 0 1 43.601562 134.06836 A 136.06299 130.96064 0 0 1 0 140.97656 A 136.06299 130.96064 0 0 1 -43.605469 134.06836 A 130.96064 130.96064 0 0 1 -58.298828 73.794922 L -58.298828 -53.763672 A 130.96064 130.96064 0 0 1 -43.601562 -114.03711 A 136.06299 130.96064 0 0 1 0 -120.94531 z "
       transform="scale(0.26458333)" />
    <path
       id="rect3314"
       style="opacity:0.15434084;fill:#000000;stroke-width:0.729419"
       d="M -57.042969 -132.2832 L -102.39648 124.93359 L -102.39648 128.71094 L -56.693359 207.87305 L 56.693359 207.87305 L 102.37109 128.75781 L 56.34375 -132.2832 L -57.042969 -132.2832 z "
       transform="scale(0.26458333)" />
    <path
       id="rect2688"
       style="opacity:0.25;fill:#000000;stroke-width:0.755906"
       d="M -57.042969 -132.2832 L -102.39648 124.93359 L -102.39648 128.71094 L -56.693359 207.87305 L 56.693359 207.87305 L 102.37109 128.75781 L 56.34375 -132.2832 L 15.119141 -132.2832 L -7.5585938 -132.2832 L -57.042969 -132.2832 z M -50.701172 -124.72461 L -7.5585938 -124.72461 L -7.5585938 -105.82422 L -0.37695312 -105.82422 L -0.37695312 -113.76172 L 7.9375 -113.76172 L 7.9375 -105.82422 L 15.119141 -105.82422 L 15.119141 -124.72461 L 50.001953 -124.72461 L 94.449219 127.36133 L 52.330078 200.31445 L 15.119141 136.06445 L 15.119141 120.94531 L 7.9375 120.94531 L 7.9375 128.88281 L -0.37695312 128.88281 L -0.37695312 120.94531 L -7.5585938 120.94531 L -7.5585938 136.06445 L -52.330078 200.31445 L -94.837891 126.68555 L -94.837891 125.5957 L -50.701172 -124.72461 z M 3.7792969 147.40234 L 35.150391 200.31445 L -34.894531 200.31445 L 3.7792969 147.40234 z "
       transform="scale(0.26458333)" />
    <path
       id="path2696"
       style="opacity:0.25;fill:#ff0000;stroke-width:0.2"
       d="M -3.2e-5,35 A 8.9999999,8.9999999 0 0 0 -9,43.999967 8.9999999,8.9999999 0 0 0 -3.2e-5,52.999935 8.9999999,8.9999999 0 0 0 8.99993,43.999967 8.9999999,8.9999999 0 0 0 -3.2e-5,35 Z m 0,3.000334 A 5.9999998,5.9999998 0 0 1 6.00012,43.999967 5.9999998,5.9999998 0 0 1 -3.2e-5,50.000118 5.9999998,5.9999998 0 0 1 -5.999666,43.999967 5.9999998,5.9999998 0 0 1 -3.2e-5,38.000334 Z" />
    <circle
       style="opacity:0.25;fill:#ff0000;stroke-width:0.2"
       id="path2701"
       cx="-1.4210855e-14"
       cy="44"
       r="11" />
    <path
       id="path833"
       style="opacity:0.176849;fill:#999999;stroke:none;stroke-width:0.2"
       d="m -54.277187,-47.521754 a 35.999999,34.650002 0 0 0 -11.536246,1.827797 34.650002,34.650002 0 0 0 -3.888652,15.947346 V 4.0032673 a 34.650002,34.650002 0 0 0 3.887618,15.9473447 35.999999,34.650002 0 0 0 11.53728,1.827798 35.999999,34.650002 0 0 0 11.536246,-1.827798 34.650002,34.650002 0 0 0 3.888653,-15.9473447 V -29.746611 a 34.650002,34.650002 0 0 0 -3.888134,-15.947346 35.999999,34.650002 0 0 0 -11.536765,-1.827797 z" />
  </g>
</svg>
