<?xml version="1.0" encoding="UTF-8" standalone="no"?>
<svg
   xmlns:dc="http://purl.org/dc/elements/1.1/"
   xmlns:cc="http://creativecommons.org/ns#"
   xmlns:rdf="http://www.w3.org/1999/02/22-rdf-syntax-ns#"
   xmlns:svg="http://www.w3.org/2000/svg"
   xmlns="http://www.w3.org/2000/svg"
   xmlns:sodipodi="http://sodipodi.sourceforge.net/DTD/sodipodi-0.dtd"
   xmlns:inkscape="http://www.inkscape.org/namespaces/inkscape"
   width="64mm"
   height="90mm"
   viewBox="0 0 64 90"
   version="1.1"
   id="svg1106"
   inkscape:version="1.0.2 (e86c8708, 2021-01-15)"
   sodipodi:docname="SolarCellCarrier.svg">
  <defs
     id="defs1100" />
  <sodipodi:namedview
     id="base"
     pagecolor="#ffffff"
     bordercolor="#666666"
     borderopacity="1.0"
     inkscape:pageopacity="0.0"
     inkscape:pageshadow="2"
     inkscape:zoom="1.6514684"
     inkscape:cx="115.18346"
     inkscape:cy="161.44618"
     inkscape:document-units="mm"
     inkscape:current-layer="layer1"
     inkscape:document-rotation="0"
     showgrid="false"
     inkscape:window-width="1252"
     inkscape:window-height="943"
     inkscape:window-x="620"
     inkscape:window-y="93"
     inkscape:window-maximized="0"
     showguides="true"
     inkscape:guide-bbox="true" />
  <metadata
     id="metadata1103">
    <rdf:RDF>
      <cc:Work
         rdf:about="">
        <dc:format>image/svg+xml</dc:format>
        <dc:type
           rdf:resource="http://purl.org/dc/dcmitype/StillImage" />
        <dc:title></dc:title>
      </cc:Work>
    </rdf:RDF>
  </metadata>
  <g
     inkscape:label="Layer 1"
     inkscape:groupmode="layer"
     id="layer1">
    <path
       id="path851"
       style="opacity:0.2;fill:#0000ff;stroke:none;stroke-width:0.999999px;stroke-linecap:butt;stroke-linejoin:miter;stroke-opacity:1"
       d="M 31.400391 -3.78125 L 27.572266 -3.3847656 L 24.855469 1.4648438 L 25.015625 7.9082031 L 30.548828 1.0742188 L 31.400391 -3.78125 z M 31.402344 -3.7792969 L 30.550781 1.0742188 L 31.457031 1.234375 L 35.179688 1.890625 L 34.214844 7.3652344 L 38.894531 7.3652344 L -3.1582031 247.00781 L -8.0410156 247.00781 L -9.4492188 254.99414 L -13.171875 254.33789 L -16.033203 246.02344 L -18.386719 252.02344 L -15.003906 260.66211 L -14.998047 260.64453 L -15.001953 260.66211 L -5.5546875 260.66211 L 40.123047 340.15625 L 44.658203 340.15625 L -1.0195312 261.04102 L -0.953125 260.66211 L 0.54882812 252.14453 L 1.4550781 247.00781 L 43.708984 7.3652344 L 45.007812 0 L 63.904297 0 L 177.29297 0 L 196.18945 0 L 197.48828 7.3652344 L 239.74219 247.00781 L 240.64844 252.14453 L 242.15039 260.66211 L 242.2168 261.04102 L 196.53906 340.15625 L 201.07227 340.15625 L 246.75195 260.66211 L 256.20117 260.66211 L 259.58398 252.02344 L 257.23047 246.02344 L 254.36914 254.33789 L 254.36719 254.33789 L 250.64453 254.99609 L 249.23633 247.00781 L 244.35547 247.00781 L 202.30273 7.3652344 L 206.98047 7.3652344 L 206.01562 1.8925781 L 209.73828 1.2363281 L 210.64648 1.0761719 L 216.17969 7.9101562 L 216.33984 1.4667969 L 213.62305 -3.3828125 L 209.79492 -3.7792969 L 200.34766 -3.7792969 L 165.60352 -3.7792969 L 75.591797 -3.7792969 L 40.849609 -3.7792969 L 31.402344 -3.7792969 z "
       transform="scale(0.26458333)" />
    <path
       id="path874"
       style="opacity:0.2;fill:#0000ff;stroke:none;stroke-width:0.999999px;stroke-linecap:butt;stroke-linejoin:miter;stroke-opacity:1"
       d="m 31.400391,-3.7792969 -0.851563,4.8535157 4.63086,0.8164062 -44.6289068,253.103515 -4.4238282,-0.7793 -1.130859,6.44727 h 9.4492185 l 45.6777345,79.49414 h 4.535156 L -1.0195312,261.04102 45.007812,0 h 18.896485 113.388673 18.89648 l 46.02735,261.04102 -45.67774,79.11523 h 4.53321 l 45.67968,-79.49414 h 9.44922 l -1.13086,-6.44727 -0.70312,0.12305 -3.72266,0.6582 -44.62891,-253.1035119 3.72266,-0.65625 0.9082,-0.1601562 -0.85156,-4.8554688 h -44.1914 -90.011723 z"
       transform="scale(0.26458333)"
       sodipodi:nodetypes="ccccccccccccccccccccccccccccc" />
    <path
       id="path950"
       style="opacity:0.2;fill:#0000ff;stroke:none;stroke-width:0.999999px;stroke-linecap:butt;stroke-linejoin:miter;stroke-opacity:1"
       d="m 31.400391,-3.7792969 -0.851563,4.8535157 8.63086,0.8164062 -4.021485,22.802734 H 27.378906 L 10.982422,117.68555 h 7.779297 L 14.5,141.85156 H 6.7207031 l -16.3964843,92.99219 h 7.7792969 l -3.5527344,20.15039 -8.4238283,-0.7793 -1.130859,6.44727 h 9.4492185 l 45.6777345,79.49414 h 4.535156 L -1.0195312,261.04102 3.5996094,234.84375 19.996094,141.85156 24.257812,117.68555 40.654297,24.693359 45.007812,0 h 18.896485 113.388673 18.89648 l 4.35352,24.693359 16.39648,92.992191 4.26172,24.16601 16.39649,92.99219 4.61914,26.19727 -45.67774,79.11523 h 4.53321 l 45.67968,-79.49414 h 9.44922 l -1.13086,-6.44727 -0.70312,0.12305 -7.72266,0.6582 -3.55273,-20.15234 h 7.77929 l -16.39843,-92.99219 h -7.7793 l -4.25977,-24.16601 h 7.7793 L 213.81445,24.693359 h -7.77929 l -4.01954,-22.8007809 7.72266,-0.65625 0.9082,-0.1601562 -0.85156,-4.8554688 h -44.1914 -90.011723 z"
       sodipodi:nodetypes="ccccccccccccccccccccccccccccccccccccccccccccccccccccc"
       transform="scale(0.26458333)" />
    <path
       style="fill:#0000ff;stroke:none;stroke-width:0.26458300000000001px;stroke-linecap:butt;stroke-linejoin:miter;stroke-opacity:1;fill-opacity:1;opacity:0.2"
       d="M -1.4696777,68.966849 10.615889,89.999673 H 53.200371 L 65.286453,68.966849 Z"
       id="path970" />
    <path
       id="path972"
       style="opacity:0.2;fill:#0000ff;stroke:none;stroke-width:0.999999px;stroke-linecap:butt;stroke-linejoin:miter;stroke-opacity:1"
       d="M 40.849134,-3.7792969 -5.5546875,260.66211 40.123047,340.15625 h 4.535156 L -1.0195312,261.04102 45.007812,0 H 196.18945 l 46.02735,261.04102 -45.67774,79.11523 h 4.53321 L 246.75195,260.66211 200.3452,-3.7792969 Z"
       sodipodi:nodetypes="ccccccccccccc"
       transform="scale(0.26458333)" />
  </g>
</svg>
